<svg xmlns="http://www.w3.org/2000/svg" xmlns:xlink="http://www.w3.org/1999/xlink" width="20" height="25" viewBox="0 0 20 25">
  <defs>
    <style>
      .cls-1 {
        fill: #0051ff;
        fill-rule: evenodd;
        filter: url(#filter);
      }
    </style>
    <filter id="filter" x="0" y="0" width="20" height="25" filterUnits="userSpaceOnUse">
      <feFlood result="flood" flood-color="#0051ff"/>
      <feComposite result="composite" operator="in" in2="SourceGraphic"/>
      <feBlend result="blend" mode="overlay" in2="SourceGraphic"/>
    </filter>
  </defs>
  <path id="TIP" class="cls-1" d="M10,5A10,10,0,1,1,0,15,10,10,0,0,1,10,5Zm0,0A10,10,0,1,1,0,15,10,10,0,0,1,10,5Zm0,4a6,6,0,1,1-6,6A6,6,0,0,1,10,9Zm0,0a6,6,0,1,1-6,6A6,6,0,0,1,10,9ZM9.981,0.008l3,4h-6Z"/>
</svg>
